<svg xmlns="http://www.w3.org/2000/svg" width="190.556" height="120.267" viewBox="0 0 190.556 120.267">
            <g id="Group_1110" data-name="Group 1110" transform="translate(-598.147 -514.733)">
              <path id="Path_1907" data-name="Path 1907" d="M73.771,25.116a.728.728,0,0,0-.688-.058L48.805,34.131,24.41,25a.735.735,0,0,0-1.036.67l-.015,37.91a.727.727,0,0,0,.29.584l24.59,21.074a.735.735,0,0,0,.876-.009l24.688-21a.738.738,0,0,0,.3-.6V25.733A.734.734,0,0,0,73.771,25.116ZM27.486,55.924V31.053l17.74,5.956Zm42.285,5.465-21.1,18.406L27.659,61.367,48.7,39.379Zm.222-30.269V55.99L52.253,37.074Z" transform="translate(574.789 548.365)" fill="#3F3A4C"></path>
              <g id="Group_1109" data-name="Group 1109" transform="translate(18 4)">
                <g id="Ellipse_28" data-name="Ellipse 28" transform="translate(726 570)" fill="none" stroke="#3F3A4C" stroke-width="4">
                  <circle cx="18" cy="18" r="18" stroke="none"></circle>
                  <circle cx="18" cy="18" r="16" fill="none"></circle>
                </g>
                <g id="Path_1908" data-name="Path 1908" transform="translate(717 611)" fill="none">
                  <path d="M0,10S7.783.088,26.486,0,53.7,10,53.7,10V20H0Z" stroke="none"></path>
                  <path d="M 49.70215225219727 15.99999904632568 L 49.70215225219727 11.66344833374023 C 48.7712516784668 10.83079624176025 47.16147994995117 9.554465293884277 44.85499572753906 8.291088104248047 C 42.58437347412109 7.047354698181152 40.08696365356445 6.056265830993652 37.43212890625 5.345343589782715 C 34.09701919555664 4.452265739440918 30.49575233459473 3.999432325363159 26.72837448120117 3.999432325363159 C 26.65505218505859 3.999432325363159 26.57883071899414 3.999610185623169 26.50499725341797 3.999954462051392 C 22.7119083404541 4.0177321434021 19.12106323242188 4.47857666015625 15.83220767974854 5.369688034057617 C 13.22255229949951 6.07677698135376 10.79255199432373 7.055899143218994 8.609718322753906 8.279865264892578 C 6.385395050048828 9.527094841003418 4.866182804107666 10.78312110900879 3.999996423721313 11.59651660919189 L 3.999996423721313 15.99999904632568 L 49.70215225219727 15.99999904632568 M 53.70215225219727 19.99999809265137 L -3.559027845767559e-06 19.99999809265137 L -3.559027845767559e-06 9.999999046325684 C -3.559027845767559e-06 9.999999046325684 7.783296585083008 0.08764342218637466 26.48625183105469 -1.019965225168562e-06 C 26.56616020202637 -0.0003754774224944413 26.64883613586426 -0.0005688150995410979 26.72837066650391 -0.0005688150995410979 C 45.26474761962891 -0.0005688150995410979 53.70215225219727 9.999999046325684 53.70215225219727 9.999999046325684 L 53.70215225219727 19.99999809265137 Z" stroke="none" fill="#3F3A4C"></path>
                </g>
              </g>
              <g id="Path_1909" data-name="Path 1909" transform="translate(649.453 514.733)" fill="none">
                <path d="M61.715,0H0V47.473H15.923V62.434L29,47.473H61.715Z" stroke="none"></path>
                <path d="M 3.999992370605469 4 L 3.999992370605469 43.4734001159668 L 15.92340469360352 43.4734001159668 L 19.92340469360352 43.4734001159668 L 19.92340469360352 47.4734001159668 L 19.92340469360352 51.78168869018555 L 25.99193572998047 44.84059143066406 L 27.18725204467773 43.4734001159668 L 29.00329971313477 43.4734001159668 L 57.7154655456543 43.4734001159668 L 57.7154655456543 4 L 3.999992370605469 4 M -7.62939453125e-06 0 L 61.7154655456543 0 L 61.7154655456543 47.4734001159668 L 29.00329971313477 47.4734001159668 L 15.92340469360352 62.43400192260742 L 15.92340469360352 47.4734001159668 L -7.62939453125e-06 47.4734001159668 L -7.62939453125e-06 0 Z" stroke="none" fill="#3F3A4C"></path>
              </g>
              <path id="Path_1910" data-name="Path 1910" d="M8364.311,1505.321v13.024h22.216l7.48,8.837v-8.837h9.205v-28.532H8379.4" transform="translate(-7669 -945)" fill="none" stroke="#3F3A4C" stroke-width="4"></path>
            </g>
          </svg>